<svg width="15" height="15" viewBox="0 0 25 30" fill="none" xmlns="http://www.w3.org/2000/svg">
<path d="M8.03571 8.4375V11.25H16.9643V8.4375C16.9643 5.84766 14.9665 3.75 12.5 3.75C10.0335 3.75 8.03571 5.84766 8.03571 8.4375ZM4.46429 11.25V8.4375C4.46429 3.7793 8.06362 0 12.5 0C16.9364 0 20.5357 3.7793 20.5357 8.4375V11.25H21.4286C23.3984 11.25 25 12.9316 25 15V26.25C25 28.3184 23.3984 30 21.4286 30H3.57143C1.60156 30 0 28.3184 0 26.25V15C0 12.9316 1.60156 11.25 3.57143 11.25H4.46429Z" fill="#173753"/>
</svg>
